<svg xmlns="http://www.w3.org/2000/svg" xmlns:xlink="http://www.w3.org/1999/xlink" xmlns:fi="http://pattern.flaticon.com/" x="0" y="0" width="2160" height="1080" viewBox="0 0 2160 1080"><rect x="0px" y="0px" width="100%" height="100%" opacity="1" fill="#ffffff"/><defs><g transform="matrix(0.07994726300239563 0 0 0.07994726300239563 257.5335006713867 150.53348499391166)" id="L1_191"><rect x="48px" y="107px" width="416px" height="256px" fill="#ffffff"/><rect x="48px" y="107px" width="416px" height="64px" fill="#ff4f19"/><path d="M459.133,75.984H52.852C32.531,75.984,16,92.477,16,112.75v291.234c0,4.422,3.578,8,8,8h464    c4.422,0,8-3.578,8-8V112.75C496,92.477,479.461,75.984,459.133,75.984z M48,355.984v-240c0-4.418,3.582-8,8-8h400    c4.418,0,8,3.582,8,8v240c0,4.418-3.582,8-8,8H56C51.582,363.984,48,360.402,48,355.984z" fill="#5c546a"/><path d="M504,395.984H8c-4.422,0-8,3.578-8,8l0,0c0,17.664,14.367,32.031,32.031,32.031h447.937    c17.664,0,32.031-14.367,32.031-32.031l0,0C512,399.562,508.422,395.984,504,395.984z" fill="#b9bbc1"/><path d="M144,147.984H88c-4.422,0-8-3.578-8-8c0-4.422,3.578-8,8-8h56c4.422,0,8,3.578,8,8     C152,144.406,148.422,147.984,144,147.984z" fill="#ffd200"/><path d="M288,147.984h-8c-4.422,0-8-3.578-8-8c0-4.422,3.578-8,8-8h8c4.422,0,8,3.578,8,8     C296,144.406,292.422,147.984,288,147.984z" fill="#ffffff"/><path d="M328,147.984h-8c-4.422,0-8-3.578-8-8c0-4.422,3.578-8,8-8h8c4.422,0,8,3.578,8,8     C336,144.406,332.422,147.984,328,147.984z" fill="#ffffff"/><path d="M368,147.984h-8c-4.422,0-8-3.578-8-8c0-4.422,3.578-8,8-8h8c4.422,0,8,3.578,8,8     C376,144.406,372.422,147.984,368,147.984z" fill="#ffffff"/><path d="M408,147.984h-8c-4.422,0-8-3.578-8-8c0-4.422,3.578-8,8-8h8c4.422,0,8,3.578,8,8     C416,144.406,412.422,147.984,408,147.984z" fill="#ffffff"/><path d="M224,339.984H88c-4.418,0-8-3.582-8-8v-128c0-4.418,3.582-8,8-8h136c4.418,0,8,3.582,8,8v128    C232,336.402,228.418,339.984,224,339.984z" fill="#53dcff"/><path d="M416,211.984H264c-4.422,0-8-3.578-8-8c0-4.422,3.578-8,8-8h152c4.422,0,8,3.578,8,8     C424,208.406,420.422,211.984,416,211.984z" fill="#ff4f19"/><path d="M328,275.984h-64c-4.422,0-8-3.578-8-8s3.578-8,8-8h64c4.422,0,8,3.578,8,8     S332.422,275.984,328,275.984z" fill="#b9bbc1"/><path d="M328,307.984h-64c-4.422,0-8-3.578-8-8s3.578-8,8-8h64c4.422,0,8,3.578,8,8     S332.422,307.984,328,307.984z" fill="#b9bbc1"/><path d="M328,339.984h-64c-4.422,0-8-3.578-8-8s3.578-8,8-8h64c4.422,0,8,3.578,8,8     S332.422,339.984,328,339.984z" fill="#b9bbc1"/><path d="M424,275.984h-64c-4.422,0-8-3.578-8-8s3.578-8,8-8h64c4.422,0,8,3.578,8,8     S428.422,275.984,424,275.984z" fill="#b9bbc1"/><path d="M424,307.984h-64c-4.422,0-8-3.578-8-8s3.578-8,8-8h64c4.422,0,8,3.578,8,8     S428.422,307.984,424,307.984z" fill="#b9bbc1"/><path d="M424,339.984h-64c-4.422,0-8-3.578-8-8s3.578-8,8-8h64c4.422,0,8,3.578,8,8     S428.422,339.984,424,339.984z" fill="#b9bbc1"/><path d="M368,243.984H264c-4.422,0-8-3.578-8-8c0-4.422,3.578-8,8-8h104c4.422,0,8,3.578,8,8     C376,240.406,372.422,243.984,368,243.984z" fill="#e9001e"/><path d="M224,411.984h64c8.836,0,16-7.164,16-16h-96C208,404.821,215.163,411.984,224,411.984z" fill="#8b8996"/></g><g transform="matrix(0.11906055361032486 0 0 0.11906055361032486 10.520498275756836 39.520498275756836)" id="L1_192"><path d="m512 256c0 141.386719-114.613281 256-256 256s-256-114.613281-256-256 114.613281-256 256-256 256 114.613281 256 256zm0 0" fill="#017296"/><path d="m271.832031 159v-11c0-1.105469.894531-2 2-2h120.167969c1.105469 0 2 .894531 2 2v11c0 1.105469-.894531 2-2 2h-120.167969c-1.101562 0-2-.894531-2-2zm152.167969 207h-150.167969c-1.105469 0-2 .894531-2 2v11c0 1.105469.894531 2 2 2h150.167969c1.105469 0 2-.894531 2-2v-11c0-1.105469-.894531-2-2-2zm-150.167969-15h120.167969c1.105469 0 2-.894531 2-2v-11c0-1.105469-.894531-2-2-2h-120.167969c-1.105469 0-2 .894531-2 2v11c0 1.105469.898438 2 2 2zm150.167969-45h-150.167969c-1.105469 0-2 .894531-2 2v11c0 1.105469.894531 2 2 2h150.167969c1.105469 0 2-.894531 2-2v-11c0-1.105469-.894531-2-2-2zm0-130h-150.167969c-1.105469 0-2 .894531-2 2v11c0 1.105469.894531 2 2 2h150.167969c1.105469 0 2-.894531 2-2v-11c0-1.105469-.894531-2-2-2zm0-60h-150.167969c-1.105469 0-2 .894531-2 2v11c0 1.105469.894531 2 2 2h150.167969c1.105469 0 2-.894531 2-2v-11c0-1.105469-.894531-2-2-2zm0 0" fill="#6caac9"/><path d="m151 278.5c-39.976562 0-72.5 32.523438-72.5 72.5s32.523438 72.5 72.5 72.5 72.5-32.523438 72.5-72.5-32.523438-72.5-72.5-72.5zm0 130c-31.707031 0-57.5-25.792969-57.5-57.5s25.792969-57.5 57.5-57.5 57.5 25.792969 57.5 57.5-25.792969 57.5-57.5 57.5zm0-175c39.976562 0 72.5-32.523438 72.5-72.5s-32.523438-72.5-72.5-72.5-72.5 32.523438-72.5 72.5 32.523438 72.5 72.5 72.5zm0-130c31.707031 0 57.5 25.792969 57.5 57.5s-25.792969 57.5-57.5 57.5-57.5-25.792969-57.5-57.5 25.792969-57.5 57.5-57.5zm0 0" fill="#88b9d3"/><path d="m488.070312 80.496094-28.285156 28.285156c-3.902344 3.90625-10.234375 3.90625-14.140625 0l-42.425781-42.425781c-3.90625-3.90625-3.90625-10.238281 0-14.140625l28.285156-28.285156c3.902344-3.90625 10.234375-3.90625 14.140625 0l42.425781 42.425781c3.90625 3.90625 3.90625 10.238281 0 14.140625zm0 0" fill="#024c67"/><path d="m257.195312 94.082031-101.15625 101.152344c-1.722656 1.722656-4.515624 1.726563-6.238281 0l-44.121093-44.109375c-.859376-.859375-.859376-2.257812 0-3.117188l12.476562-12.480468c.863281-.859375 2.257812-.859375 3.121094 0l30.078125 30.078125c.859375.863281 2.257812.863281 3.117187 0l87.125-87.121094c.859375-.859375 2.257813-.859375 3.117188 0l12.476562 12.476563c.863282.863281.863282 2.261718.003906 3.121093zm-115.554687 247.996094c-3.753906 3.75-5.859375 8.835937-5.859375 14.140625v18c0 1.105469.894531 2 2 2h18c5.304688 0 10.390625-2.105469 14.140625-5.859375l22.425781-22.425781-28.28125-28.28125zm0 0" fill="#fded32"/><path d="m481 87.566406-244.78125 244.78125c-2.792969 2.792969-6.347656 4.695313-10.21875 5.46875l-28.609375 5.722656c-4.914063.984376-9.992187-.554687-13.535156-4.097656l-11.300781-11.300781c-3.539063-3.539063-5.078126-8.621094-4.09375-13.53125l5.71875-28.609375c.773437-3.871094 2.679687-7.429688 5.46875-10.21875l244.78125-244.78125zm0 0" fill="#fc9302"/><path d="m481 87.566406-244.78125 244.78125c-2.792969 2.792969-6.347656 4.695313-10.21875 5.46875l-28.609375 5.722656c-4.914063.984376-9.992187-.554687-13.535156-4.097656l7.296875-36.46875c.773437-3.875 2.675781-7.429687 5.46875-10.222656l244.78125-244.78125zm0 0" fill="#fdbf43"/><path d="m236.21875 332.347656-15.585938 15.585938c-7.808593 7.8125-20.472656 7.8125-28.285156 0l-14.140625 14.144531-28.285156-28.285156 14.144531-14.140625c-7.8125-7.8125-7.8125-20.476563 0-28.285156l15.585938-15.585938zm0 0" fill="#024c67"/></g><g transform="matrix(0.08291009813547134 0 0 0.08291009813547134 231.774995803833 284.774995803833)" id="L1_194"><path d="m70.160156 432.058594c-43.480468-45.882813-70.160156-107.855469-70.160156-176.058594 0-142.535156 116.488281-257.863281 259.453125-255.9765625 140.625 1.8515625 252.765625 115.7460935 252.546875 256.3828125-.105469 66.703125-25.722656 127.417969-67.613281 172.921875-1.578125 1.714844-3.925781 2.480469-6.21875 2.078125-56.828125-9.964844-118.175781-15.40625-182.167969-15.40625-65.371094 0-127.984375 5.679688-185.839844 16.058594zm0 0" fill="#5de0c3"/><path d="m115 469.664062c-22.367188-14.796874-42.292969-32.988281-59-53.875v-345.789062c0-11.046875 8.953125-20 20-20h39zm0 0" fill="#df3d9b"/><path d="m446 70v357.5625c-11.109375 12.292969-23.402344 23.488281-36.6875 33.4375h-19.78125c-15.757812 0-28.53125 12.773438-28.53125 28.53125-32.039062 14.429688-67.578125 22.46875-105 22.46875-68.175781 0-130.121094-26.65625-176-70.109375v-371.890625c0-11.046875 8.953125-20 20-20h326c11.046875 0 20 8.953125 20 20zm0 0" fill="#e659a9"/><path d="m410 95v365.503906c-15.421875 11.632813-32.195312 21.554688-50.050781 29.496094h-207.898438c-22.601562-10.054688-43.46875-23.285156-62.050781-39.128906v-355.871094c0-2.761719 2.238281-5 5-5h310c2.761719 0 5 2.238281 5 5zm0 0" fill="#cff09a"/><path d="m290 70h-80c-15.164062 0-27.5 12.335938-27.5 27.5v10c0 15.164062 12.335938 27.5 27.5 27.5h80c15.164062 0 27.5-12.335938 27.5-27.5v-10c0-15.164062-12.335938-27.5-27.5-27.5zm12.5 37.5c0 6.894531-5.605469 12.5-12.5 12.5h-80c-6.894531 0-12.5-5.605469-12.5-12.5v-10c0-6.894531 5.605469-12.5 12.5-12.5h80c6.894531 0 12.5 5.605469 12.5 12.5zm0 0" fill="#024c67"/><path d="m320 100h-140c-5.523438 0-10-4.476562-10-10v-45c0-2.761719 2.238281-5 5-5h150c2.761719 0 5 2.238281 5 5v45c0 5.523438-4.476562 10-10 10zm157.800781 215.335938-14.582031-14.582032c-1.007812-1.003906-2.636719-1.003906-3.644531 0l-101.804688 101.804688c-1.003906 1.007812-2.636719 1.007812-3.644531 0l-35.144531-35.148438c-1.007813-1.003906-2.636719-1.003906-3.644531 0l-14.582032 14.582032c-1.007812 1.003906-1.007812 2.640624 0 3.644531l51.554688 51.542969c2.015625 2.011718 5.277344 2.011718 7.289062 0l118.203125-118.199219c1.003907-1.007813 1.003907-2.640625 0-3.644531zm0 0" fill="#025f80"/><path d="m330 45v45c0 5.523438-4.476562 10-10 10h-120c-5.523438 0-10-4.476562-10-10v-45c0-2.761719 2.238281-5 5-5h35v-10c0-11.046875 8.953125-20 20-20s20 8.953125 20 20v10h55c2.761719 0 5 2.238281 5 5zm0 0" fill="#017296"/><path d="m260 30c0 5.523438-4.476562 10-10 10s-10-4.476562-10-10 4.476562-10 10-10 10 4.476562 10 10zm0 0" fill="#025f80"/><path d="m185 317.25c0 18.109375-12.902344 33.261719-30 36.746094v22.503906c0 4.140625-3.359375 7.5-7.5 7.5s-7.5-3.359375-7.5-7.5v-22.503906c-17.097656-3.484375-30-18.636719-30-36.746094 0-20.679688 16.820312-37.5 37.5-37.5s37.5 16.820312 37.5 37.5zm-38 72.75c-4.140625 0-7.5 3.359375-7.5 7.5s3.359375 7.5 7.5 7.5 7.5-3.359375 7.5-7.5-3.359375-7.5-7.5-7.5zm0-130.953125c-4.140625 0-7.5 3.359375-7.5 7.5 0 4.144531 3.359375 7.5 7.5 7.5s7.5-3.355469 7.5-7.5c0-4.140625-3.359375-7.5-7.5-7.5zm-7-58.171875v22.503906c0 4.144532 3.359375 7.5 7.5 7.5s7.5-3.355468 7.5-7.5v-22.503906c17.097656-3.484375 30-18.636719 30-36.746094 0-20.675781-16.820312-37.5-37.5-37.5s-37.5 16.824219-37.5 37.5c0 18.113282 12.902344 33.261719 30 36.746094zm7 36.007812c-4.140625 0-7.5 3.355469-7.5 7.5 0 4.140626 3.359375 7.5 7.5 7.5s7.5-3.359374 7.5-7.5c0-4.144531-3.359375-7.5-7.5-7.5zm0 0" fill="#b8eb6a"/><path d="m170 317.25c0 12.40625-10.09375 22.5-22.5 22.5s-22.5-10.09375-22.5-22.5 10.09375-22.5 22.5-22.5 22.5 10.09375 22.5 22.5zm-22.5-130.617188c12.40625 0 22.5-10.09375 22.5-22.5 0-12.410156-10.09375-22.5-22.5-22.5s-22.5 10.089844-22.5 22.5c0 12.40625 10.09375 22.5 22.5 22.5zm0 0" fill="#7ecd00"/><path d="m380 160.25v7c0 2.207031-1.789062 4-4 4h-166c-2.210938 0-4-1.792969-4-4v-7c0-2.210938 1.789062-4 4-4h166c2.210938 0 4 1.789062 4 4zm-170 39.75h126c2.210938 0 4-1.792969 4-4v-7c0-2.210938-1.789062-4-4-4h-126c-2.210938 0-4 1.789062-4 4v7c0 2.207031 1.789062 4 4 4zm166 16.25h-166c-2.210938 0-4 1.789062-4 4v7c0 2.207031 1.789062 4 4 4h166c2.210938 0 4-1.792969 4-4v-7c0-2.210938-1.789062-4-4-4zm-166 43.75h126c2.210938 0 4-1.792969 4-4v-7c0-2.210938-1.789062-4-4-4h-126c-2.210938 0-4 1.789062-4 4v7c0 2.207031 1.789062 4 4 4zm166 36.25h-166c-2.210938 0-4 1.789062-4 4v7c0 2.207031 1.789062 4 4 4h166c2.210938 0 4-1.792969 4-4v-7c0-2.210938-1.789062-4-4-4zm-40 28.75h-126c-2.210938 0-4 1.789062-4 4v7c0 2.207031 1.789062 4 4 4h126c2.210938 0 4-1.792969 4-4v-7c0-2.210938-1.789062-4-4-4zm0 0" fill="#a1e52e"/><path d="m363.546875 488.363281c-1.195313.550781-2.394531 1.101563-3.597656 1.636719h-284.449219c-24.578125 0-44.5-19.921875-44.5-44.5v-40.5c0-2.761719 2.238281-5 5-5h290c2.761719 0 5 2.238281 5 5v40.5c0 20.433594 13.777344 37.636719 32.546875 42.863281zm0 0" fill="#ecf8d9"/><path d="m100.5 490h-25c-24.578125 0-44.5-19.921875-44.5-44.5v-40.5c0-2.761719 2.238281-5 5-5h20v45.5c0 24.578125 19.921875 44.5 44.5 44.5zm0 0" fill="#ddf4ba"/></g></defs><g fi:class="KUsePattern"><pattern id="pattern_L1_191" width="350" height="350" patternUnits="userSpaceOnUse"><use xlink:href="#L1_191" x="-350" y="-350"/><use xlink:href="#L1_191" x="0" y="-350"/><use xlink:href="#L1_191" x="350" y="-350"/><use xlink:href="#L1_191" x="-350" y="0"/><use xlink:href="#L1_191" x="0" y="0"/><use xlink:href="#L1_191" x="350" y="0"/><use xlink:href="#L1_191" x="-350" y="350"/><use xlink:href="#L1_191" x="0" y="350"/><use xlink:href="#L1_191" x="350" y="350"/></pattern><rect x="0" y="0" width="100%" height="100%" fill="url(#pattern_L1_191)"/></g><g fi:class="KUsePattern"><pattern id="pattern_L1_192" width="350" height="350" patternUnits="userSpaceOnUse"><use xlink:href="#L1_192" x="-350" y="-350"/><use xlink:href="#L1_192" x="0" y="-350"/><use xlink:href="#L1_192" x="350" y="-350"/><use xlink:href="#L1_192" x="-350" y="0"/><use xlink:href="#L1_192" x="0" y="0"/><use xlink:href="#L1_192" x="350" y="0"/><use xlink:href="#L1_192" x="-350" y="350"/><use xlink:href="#L1_192" x="0" y="350"/><use xlink:href="#L1_192" x="350" y="350"/></pattern><rect x="0" y="0" width="100%" height="100%" fill="url(#pattern_L1_192)"/></g><g fi:class="KUsePattern"><pattern id="pattern_L1_194" width="350" height="350" patternUnits="userSpaceOnUse"><use xlink:href="#L1_194" x="-350" y="-350"/><use xlink:href="#L1_194" x="0" y="-350"/><use xlink:href="#L1_194" x="350" y="-350"/><use xlink:href="#L1_194" x="-350" y="0"/><use xlink:href="#L1_194" x="0" y="0"/><use xlink:href="#L1_194" x="350" y="0"/><use xlink:href="#L1_194" x="-350" y="350"/><use xlink:href="#L1_194" x="0" y="350"/><use xlink:href="#L1_194" x="350" y="350"/></pattern><rect x="0" y="0" width="100%" height="100%" fill="url(#pattern_L1_194)"/></g></svg>