<svg height="512" viewBox="0 0 64 64" width="512" xmlns="http://www.w3.org/2000/svg"><path d="m55 13v32h-46v-32a2.006 2.006 0 0 1 2-2h42a2.006 2.006 0 0 1 2 2z" fill="#5aaae7"/><path d="m49 13v26a2.006 2.006 0 0 1 -2 2h-26a2.006 2.006 0 0 1 -2-2h26a2.006 2.006 0 0 0 2-2v-24z" fill="#3d9ae2"/><path d="m55 45h-46l-6 12h21 16 21z" fill="#acabb1"/><path d="m47 11v26a2.006 2.006 0 0 1 -2 2h-26a2.006 2.006 0 0 1 -2-2v-32a2.006 2.006 0 0 1 2-2h22v7a1 1 0 0 0 1 1z" fill="#e6e7e8"/><path d="m47.24 11-.24.42v-.42z" fill="#e6e7e8"/><path d="m42.23 31.67-1.5 2.6a2 2 0 1 1 -3.46-2l1.5-2.6z" fill="#bcbec0"/><path d="m45.96 29.21-.5.86-3.23 1.6-3.46-2-.23-3.6.5-.86 3.46 2z" fill="#ee8700"/><path d="m47 12.49-.46-.27-7.5 12.99 3.46 2 3.46 2 1.04-1.81 6.46-11.18z" fill="#ff9811"/><path d="m54.5 6.42a4.007 4.007 0 0 0 -5.46 1.47l-1 1.73 2.39 1.38 4.53 2.62.04-.07.96-1.66a4 4 0 0 0 -1.46-5.47z" fill="#ff9811"/><path d="m50.43 11-2.39-1.38-.8 1.38-.24.42-.46.8.46.27 6.46 3.73 1.5-2.6z" fill="#e6e7e8"/><path d="m38 53 2 4h-16l2-4z" fill="#c6c5ca"/><path d="m61 57v3a1 1 0 0 1 -1 1h-56a1 1 0 0 1 -1-1v-3z" fill="#898890"/><path d="m41 3 6 8h-5a1 1 0 0 1 -1-1z" fill="#bcbec0"/><path d="m61.9 56.553-5.9-11.789v-30.941l.83-1.438a5 5 0 0 0 -8.66-5l-1.144 1.982-5.226-6.967a1 1 0 0 0 -.8-.4h-22a3 3 0 0 0 -3 3v5h-5a3 3 0 0 0 -3 3v31.764l-5.895 11.789a1 1 0 0 0 -.105.447v3a2 2 0 0 0 2 2h56a2 2 0 0 0 2-2v-3a1 1 0 0 0 -.1-.447zm-21.282-.553-1.718-3.447a1 1 0 0 0 -.9-.553h-12a1 1 0 0 0 -.895.553l-1.723 3.447h-18.764l5-10h44.764l5 10zm-2.236 0h-12.764l1-2h10.764zm-.248-23.232 1-1.732 1.732 1-1 1.732a1 1 0 0 1 -1.732-1zm4.135-2.232-2.538-1.465-.154-2.4 4.846 2.8zm3.329-2.7-1.732-1 5.5-9.527-1.732-1-5.5 9.526-1.732-1 6.5-11.258 5.2 3zm-3.598-21.836 3 4h-3zm11.1 8.849-5.2-3 .5-.866 5.2 3zm-1.376-7.862a3 3 0 0 1 3.374 4.4l-.5.866-5.2-3 .5-.866a2.984 2.984 0 0 1 1.826-1.4zm-33.724-1.987a1 1 0 0 1 1-1h21v6a2 2 0 0 0 2 2h3.506l-7.836 13.572a.994.994 0 0 0 -.132.564l.212 3.3-1.35 2.333a3 3 0 0 0 5.2 3l1.348-2.336 2.96-1.464c.034-.017.061-.044.093-.064v6.095a1 1 0 0 1 -1 1h-26.001a1 1 0 0 1 -1-1zm-8 8a1 1 0 0 1 1-1h5v25a3 3 0 0 0 3 3h26a3 3 0 0 0 3-3v-9.321l6-10.392v26.713h-44zm-6 47v-2h56v2z"/><path d="m10 52h2v2h-2z"/><path d="m14 52h2v2h-2z"/><path d="m48 52h2v2h-2z"/><path d="m52 52h2v2h-2z"/><path d="m15 48h2v2h-2z"/><path d="m11 48h2v2h-2z"/><path d="m19 48h2v2h-2z"/><path d="m23 48h2v2h-2z"/><path d="m27 48h2v2h-2z"/><path d="m31 48h2v2h-2z"/><path d="m35 48h2v2h-2z"/><path d="m39 48h2v2h-2z"/><path d="m43 48h2v2h-2z"/><path d="m47 48h2v2h-2z"/><path d="m51 48h2v2h-2z"/><path d="m18 52h4v2h-4z"/><path d="m42 52h4v2h-4z"/><path d="m22 12h14v2h-14z"/><path d="m22 8h2v2h-2z"/><path d="m26 8h10v2h-10z"/><path d="m22 16h18v2h-18z"/><path d="m22 20h14v2h-14z"/><path d="m22 24h6v2h-6z"/><path d="m30 24h2v2h-2z"/><path d="m34 24h2v2h-2z"/><path d="m22 28h4v2h-4z"/><path d="m28 28h2v2h-2z"/><path d="m32 28h4v2h-4z"/><path d="m22 32h8v2h-8z"/></svg>