<svg width="281" height="372" viewBox="0 0 281 372" fill="none" xmlns="http://www.w3.org/2000/svg">
<path opacity="0.5" d="M101.409 291.192V307.976C101.409 308.932 102.187 309.711 103.143 309.711H136.801C137.757 309.711 138.535 308.932 138.535 307.976V291.192C138.535 290.214 137.757 289.457 136.801 289.457H103.143C102.187 289.457 101.409 290.236 101.409 291.192Z" fill="url(#paint0_linear_1614_33691)"/>
<path opacity="0.5" d="M50.6991 248.751V265.536C50.6991 266.492 51.4772 267.27 52.4332 267.27H86.0915C87.0474 267.27 87.8254 266.492 87.8254 265.536V248.751C87.8254 247.795 87.0474 247.017 86.0915 247.017H52.4332C51.4772 247.017 50.6991 247.795 50.6991 248.751Z" fill="url(#paint1_linear_1614_33691)"/>
<path d="M196.451 142.373C196.203 142.373 195.965 142.373 195.717 142.363L195.737 141.846C196.782 141.887 197.826 141.835 198.798 141.691L198.871 142.208C198.095 142.311 197.288 142.373 196.451 142.373ZM192.593 142.001C191.621 141.825 190.598 141.577 189.543 141.267L189.688 140.77C190.722 141.07 191.735 141.318 192.687 141.494L192.593 142.001ZM201.932 141.38L201.735 140.894L201.942 140.812C202.8 140.45 203.628 139.984 204.403 139.436L204.703 139.86C203.886 140.439 203.028 140.925 202.139 141.298L201.932 141.38ZM186.575 140.253C185.603 139.881 184.631 139.488 183.679 139.064L183.886 138.588C184.827 139.002 185.789 139.405 186.751 139.767L186.575 140.253ZM207.082 137.761L206.699 137.409C207.361 136.696 208.002 135.879 208.602 135L209.036 135.289C208.416 136.189 207.764 137.027 207.082 137.761ZM180.856 137.72C179.936 137.254 179.005 136.748 178.105 136.23L178.364 135.786C179.253 136.303 180.174 136.799 181.084 137.265L180.856 137.72ZM175.437 134.596C174.569 134.028 173.7 133.438 172.862 132.818L173.173 132.394C174.01 133.004 174.868 133.593 175.727 134.152L175.437 134.596ZM210.618 132.57L210.153 132.332C210.598 131.453 211.032 130.512 211.425 129.519L211.911 129.715C211.508 130.718 211.073 131.68 210.618 132.57ZM170.391 130.915C169.584 130.253 168.788 129.571 168.012 128.878L168.364 128.495C169.129 129.188 169.915 129.86 170.722 130.512L170.391 130.915ZM212.966 126.768L212.47 126.603C212.79 125.62 213.1 124.628 213.411 123.635L213.907 123.79C213.597 124.783 213.297 125.786 212.966 126.768ZM165.747 126.716C165.013 125.982 164.289 125.217 163.596 124.441L163.979 124.1C164.662 124.865 165.385 125.631 166.109 126.354L165.747 126.716ZM230.298 124.545L230.246 124.028C231.291 123.935 232.283 123.697 233.194 123.345L233.38 123.831C232.439 124.193 231.394 124.441 230.298 124.545ZM227.134 124.472C226.13 124.348 225.096 124.131 224.052 123.811L224.197 123.314C225.22 123.614 226.223 123.831 227.196 123.955L227.134 124.472ZM221.105 122.714C220.867 122.611 220.629 122.497 220.401 122.383C219.667 122.021 218.964 121.649 218.323 121.256L218.592 120.812C219.222 121.194 219.915 121.566 220.639 121.918C220.867 122.032 221.094 122.135 221.332 122.239L221.105 122.714ZM236.13 122.197L235.789 121.804C236.544 121.153 237.206 120.377 237.733 119.498L238.178 119.767C237.62 120.688 236.927 121.515 236.13 122.197ZM161.58 122.053C160.928 121.246 160.298 120.398 159.687 119.56L160.111 119.26C160.711 120.098 161.342 120.925 161.983 121.732L161.58 122.053ZM214.838 120.822L214.341 120.656C214.569 119.963 214.776 119.343 214.982 118.774C214.445 118.267 213.948 117.74 213.514 117.192L213.917 116.872C214.29 117.337 214.714 117.802 215.169 118.247C215.231 118.061 215.303 117.885 215.365 117.709L215.851 117.895C215.758 118.133 215.665 118.381 215.582 118.629C215.737 118.774 215.903 118.909 216.068 119.043L215.737 119.446C215.624 119.353 215.51 119.25 215.396 119.157C215.22 119.674 215.034 120.222 214.838 120.822ZM239.378 116.809L238.871 116.685C239.036 115.972 239.119 115.258 239.119 114.545C239.119 114.255 239.109 113.966 239.078 113.676L239.595 113.624C239.626 113.924 239.636 114.234 239.636 114.545C239.646 115.31 239.553 116.065 239.378 116.809ZM217.082 115.051L216.616 114.824C216.999 114.038 217.413 113.283 217.826 112.59C217.93 112.414 218.044 112.249 218.147 112.073L218.581 112.363C218.478 112.528 218.364 112.693 218.261 112.859C217.857 113.552 217.454 114.286 217.082 115.051ZM211.859 114.493C211.435 113.562 211.115 112.549 210.887 111.484L211.394 111.38C211.611 112.414 211.921 113.386 212.335 114.286L211.859 114.493ZM238.271 110.791C237.837 109.881 237.268 109.043 236.554 108.299L236.927 107.936C237.671 108.722 238.281 109.601 238.736 110.563L238.271 110.791ZM220.484 109.963L220.101 109.612C220.836 108.826 221.622 108.123 222.459 107.513L222.769 107.926C221.963 108.516 221.198 109.208 220.484 109.963ZM210.515 108.35C210.505 108.03 210.494 107.709 210.494 107.388C210.494 106.695 210.525 105.961 210.577 105.206L211.094 105.248C211.042 105.992 211.011 106.716 211.011 107.388C211.011 107.699 211.022 108.019 211.032 108.33L210.515 108.35ZM234.166 106.458C233.411 106.044 232.604 105.744 231.797 105.568C231.642 105.537 231.477 105.506 231.322 105.475L231.405 104.958C231.57 104.989 231.735 105.02 231.911 105.051C232.78 105.237 233.618 105.558 234.424 105.992L234.166 106.458ZM225.396 106.365L225.179 105.889C226.182 105.434 227.206 105.124 228.219 104.969L228.302 105.486C227.33 105.641 226.358 105.941 225.396 106.365ZM211.456 102.177L210.939 102.104C211.073 101.204 211.239 100.232 211.456 99.0224L211.963 99.1153C211.746 100.315 211.58 101.287 211.456 102.177ZM212.563 96.0543L212.056 95.951C212.294 94.8031 212.511 93.8102 212.749 92.9001L213.255 93.0244C213.018 93.9344 212.79 94.9271 212.563 96.0543ZM214.114 90.0666L213.617 89.9013C213.845 89.2291 214.093 88.5777 214.352 87.9572C214.486 87.6263 214.631 87.3055 214.786 86.9746L215.251 87.192C215.107 87.5125 214.962 87.8331 214.827 88.1536C214.579 88.7638 214.341 89.4048 214.114 90.0666ZM251.808 86.7575C250.97 86.1577 250.122 85.5475 249.274 84.9477L249.574 84.5238C250.422 85.1236 251.27 85.7338 252.108 86.3335L251.808 86.7575ZM216.741 84.5031L216.306 84.2239C216.896 83.3138 217.547 82.4763 218.23 81.7214L218.612 82.0728C217.94 82.7967 217.309 83.6138 216.741 84.5031ZM246.71 83.2001C245.779 82.59 244.921 82.0521 244.083 81.5557L244.342 81.1111C245.189 81.6075 246.058 82.1454 246.999 82.7658L246.71 83.2001ZM241.363 80.077C240.412 79.6013 239.46 79.1877 238.53 78.8361L238.716 78.3501C239.657 78.712 240.619 79.136 241.591 79.6117L241.363 80.077ZM220.887 80.0356L220.587 79.6117C220.784 79.4669 220.98 79.3323 221.187 79.1979C221.859 78.7635 222.583 78.3707 223.338 78.0501L223.545 78.5258C222.821 78.836 222.118 79.2084 221.467 79.6324C221.27 79.7668 221.074 79.8908 220.887 80.0356ZM235.593 77.9052C234.59 77.657 233.566 77.4711 232.563 77.3573L232.625 76.8403C233.649 76.954 234.693 77.14 235.717 77.3985L235.593 77.9052ZM226.451 77.6055L226.348 77.0988C227.351 76.892 228.406 76.7574 229.481 76.7161L229.502 77.2331C228.447 77.2745 227.423 77.3987 226.451 77.6055Z" fill="#B8B8C5"/>
<path d="M280.308 74.1049L245.789 75.8835L247.475 78.4482L280.308 74.1049Z" fill="#E3E3EC"/>
<path d="M280.308 74.1049L237.04 86.8972L244.516 77.9104L280.308 74.1049Z" fill="white"/>
<path d="M280.308 74.101L252.614 71.7431L245.789 75.8796L280.308 74.101Z" fill="white"/>
<path d="M245.945 84.2498L248.913 88.1278L280.309 74.1049L245.945 84.2498Z" fill="#E3E3EC"/>
<path d="M245.945 84.2498L247.165 85.8424L280.309 74.1049L245.945 84.2498Z" fill="#D2D2DF"/>
<path d="M233.263 49.3937C233.263 61.2449 223.656 70.8106 211.846 70.8106C207.286 70.8106 203.025 69.3627 199.561 66.9015C197.844 76.9946 189.033 84.6264 178.454 84.6264C169.943 84.6264 162.57 79.6731 159.147 72.4239C155.331 77.729 149.013 81.1519 141.949 81.1519C130.977 81.1519 121.939 72.8581 120.708 62.1962C117.596 64.7401 113.645 66.2294 109.343 66.2294C99.3845 66.2294 91.3079 58.1527 91.3079 48.2354C91.3079 38.2767 99.3845 30.2002 109.343 30.2002C110.791 30.2002 112.197 30.3759 113.511 30.6862C113.821 21.0791 121.763 13.3541 131.453 13.3541C135.62 13.3541 139.436 14.7607 142.508 17.1288C144.659 7.60447 153.17 0.458496 163.397 0.458496C172.787 0.458496 180.729 6.46673 183.584 14.8535C186.965 12.5267 191.091 11.2134 195.476 11.2134C205.879 11.2134 214.566 18.6283 216.448 28.5043C226.066 30.5726 233.263 39.1351 233.263 49.3937Z" fill="white"/>
<path d="M233.264 49.3951C233.264 61.2462 223.657 70.8119 211.847 70.8119C207.287 70.8119 203.026 69.3641 199.562 66.9029C197.855 76.996 189.034 84.6278 178.455 84.6278C169.944 84.6278 162.571 79.6745 159.148 72.4356C155.332 77.7407 149.013 81.1636 141.95 81.1636C131.599 81.1636 122.964 73.7694 120.999 63.9762C124.918 68.454 130.657 71.2772 137.069 71.2772C144.132 71.2772 150.451 67.8543 154.267 62.5492C157.69 69.7881 165.063 74.7417 173.574 74.7417C184.143 74.7417 192.964 67.1096 194.681 57.0165C198.145 59.4777 202.406 60.9256 206.966 60.9256C218.766 60.9256 228.383 51.3599 228.383 39.5087C228.383 38.0609 228.238 36.6544 227.969 35.2894C231.268 39.0536 233.264 43.9866 233.264 49.3951Z" fill="#E1E1F2"/>
<path opacity="0.5" d="M259.026 126.13V133.338C259.026 133.886 258.592 134.321 258.033 134.321H243.245C242.708 134.321 242.263 133.886 242.263 133.338V126.13C242.263 125.582 242.697 125.138 243.245 125.138H258.044C258.592 125.148 259.026 125.582 259.026 126.13Z" fill="#DADAF5"/>
<path opacity="0.5" d="M227.278 166.207V174.707C227.278 175.348 226.751 175.865 226.11 175.865H208.664C208.023 175.865 207.506 175.348 207.506 174.707V166.207C207.506 165.565 208.023 165.038 208.664 165.038H226.11C226.751 165.048 227.278 165.565 227.278 166.207Z" fill="#DADAF5"/>
<path opacity="0.5" d="M249.191 149.741V156.959C249.191 157.497 248.747 157.952 248.199 157.952H233.39C232.852 157.952 232.407 157.507 232.407 156.959V149.741C232.407 149.203 232.842 148.748 233.39 148.748H248.199C248.747 148.759 249.191 149.203 249.191 149.741Z" fill="#DADAF5"/>
<path d="M53.9594 336.254L62.3159 336.178C63.0138 342.064 58.2603 354.777 66.2206 358.305C75.9541 362.625 79.9531 364.191 81.9714 369.529C82.1978 370.151 81.7639 370.812 81.1037 370.83L53.2426 371.113C52.6579 371.113 52.205 370.604 52.3182 370.038C52.8464 367.322 55.2987 341.196 53.9594 336.254Z" fill="#212785"/>
<path d="M8.9901 336.096H17.3465C17.9879 342 13.1212 354.657 21.0438 358.26C30.7396 362.674 34.7197 364.259 36.6815 369.635C36.9078 370.258 36.4739 370.917 35.8137 370.917L7.95264 370.937C7.36787 370.937 6.93394 370.427 7.04712 369.843C7.59415 367.145 10.2917 341.038 8.9901 336.096Z" fill="#212785"/>
<path d="M64.4279 345.005C64.1261 345.722 58.5048 345.911 55.0716 345.949C53.5437 345.967 52.4496 345.967 52.4496 345.967L45.5079 299.922C45.1307 296.564 44.5648 293.244 43.9235 289.924C40.9808 274.607 39.0756 212.792 39.0756 212.792L32.7752 212.717C32.7752 212.717 26.7201 263.214 25.7769 277.248C25.626 279.493 25.2864 281.7 24.8714 283.926C24.4187 286.322 24.3055 288.113 24.5508 291.773C24.9092 297.073 19.7406 346.872 19.7406 346.872L7.87553 346.062C7.87553 346.062 7.78126 286.057 8.63011 273.494C9.36578 262.685 7.59261 205.058 7.0833 189.118C7.0833 188.873 7.06442 188.647 7.06442 188.42C6.98896 186.251 6.95124 185.006 6.95124 185.006L7.68694 185.044L59.7875 186.496C59.7875 186.496 59.8064 187.119 59.8441 188.269C59.863 188.703 59.8818 189.231 59.9007 189.835V189.911C59.9007 190.043 59.9007 190.175 59.9007 190.307C59.9384 191.552 59.995 193.08 60.0327 194.835C60.5232 211.302 61.6738 247.407 62.2586 257.876C63.1263 271.627 64.8429 344.006 64.4279 345.005Z" fill="#9BA1FF"/>
<path d="M60.3345 345.097C60.806 343.965 59.0518 271.417 58.2218 257.854C57.5238 245.801 56.1468 200.001 55.977 194.813C55.9204 193.059 55.8828 191.531 55.8451 190.286L55.3546 190.305C55.3924 191.55 55.449 193.078 55.4867 194.832C55.6376 200.02 57.0335 245.82 57.7314 257.892C58.6369 272.813 60.2213 343.456 59.8818 344.928L60.3345 345.097Z" fill="#E4E8FD"/>
<path d="M11.8553 346.078H12.3456C12.3456 345.474 12.2702 285.941 13.1191 273.529C13.8736 262.362 11.9495 200.679 11.5534 188.418L11.4402 185.268L11.9307 185.287L11.9496 184.796L10.9498 184.758L11.0818 188.418C11.4779 200.66 13.402 262.325 12.6475 273.473C11.7798 285.923 11.8553 345.474 11.8553 346.078Z" fill="#E4E8FD"/>
<path d="M24.8726 283.928C25.3064 281.721 25.6272 279.495 25.7781 277.25C26.6835 263.857 32.2859 216.868 32.7763 212.737L26.8344 212.888C25.2876 216.057 24.0804 219.886 23.7786 223.47C22.9297 233.392 22.7787 243.372 22.6278 253.313C22.0996 289.757 18.5156 310.298 17.9497 346.742L19.7418 346.856C19.7418 346.856 24.9103 297.057 24.5519 291.756C24.3067 288.096 24.4198 286.323 24.8726 283.928Z" fill="#868CF6"/>
<path d="M46.4133 278.092C43.4706 256.757 39.8677 233.838 43.5838 212.787H39.0943C39.3207 219.615 41.1693 275.564 43.9233 289.919C44.5647 293.239 45.1117 296.56 45.5078 299.917L52.4495 345.962C52.4495 345.962 53.5436 345.962 55.0715 345.944C53.1097 318.101 50.2237 305.745 46.4133 278.092Z" fill="#868CF6"/>
<path d="M59.9396 191.924C56.0727 193.018 49.4705 195.583 37.5111 194.772C28.3058 194.149 13.0076 193.81 7.10341 189.113C7.10341 188.867 7.08453 188.641 7.08453 188.414C7.00908 186.245 6.97136 185 6.97136 185L7.70705 185.038C13.5924 189.923 28.7208 189.188 37.9073 189.811C49.6969 190.603 55.9784 189.961 59.8453 188.263C59.8453 188.263 59.8641 188.263 59.883 188.263C59.9019 188.848 59.9019 189.32 59.9019 189.829V189.905C59.9019 190.452 59.9208 191.037 59.9396 191.924Z" fill="#212785"/>
<path d="M26.6938 196.266L25.113 196.158L25.7755 186.466L27.3563 186.574L26.6938 196.266Z" fill="#5E72FA"/>
<path d="M48.7832 198.294L47.2024 198.186L47.8639 188.494L49.4448 188.602L48.7832 198.294Z" fill="#5E72FA"/>
<path d="M41.4182 195.784L41.6068 192.861C41.6634 191.955 40.9843 191.181 40.0789 191.125L34.4765 190.766C33.5711 190.71 32.7977 191.389 32.7411 192.294L32.5524 195.219C32.4958 196.124 33.1749 196.897 34.0804 196.954L39.6828 197.312C40.5883 197.369 41.3616 196.69 41.4182 195.784ZM40.06 191.691C40.6448 191.729 41.0975 192.238 41.0598 192.823L40.8712 195.747C40.8335 196.331 40.3241 196.784 39.7394 196.746L34.137 196.388C33.5522 196.35 33.0995 195.841 33.1372 195.257L33.3259 192.332C33.3636 191.747 33.8729 191.295 34.4576 191.333L40.06 191.691Z" fill="#E4E8FD"/>
<path d="M35.8724 208.42L35.3079 208.381L36.102 196.713L36.6666 196.751L35.8724 208.42Z" fill="#E4E8FD"/>
<path d="M91.308 126.25C91.308 126.25 77.6698 149.848 69.2568 149.792C65.8048 149.773 61.07 144.51 57.8821 140.398C57.7124 140.171 57.5614 139.983 57.3917 139.757C56.1278 138.04 55.1469 136.625 54.6754 135.908C54.6565 136.135 54.6188 136.229 54.6188 136.229L54.8074 137.568L55.1658 140.077L55.3168 141.171L61.8623 186.557C61.6171 193.574 6.80019 191.687 7.04541 184.67C8.55448 139.549 -3.8764 107.878 2.8578 100.446C3.65007 99.5779 6.27213 94.0698 19.0615 89.5992C19.401 89.5049 19.7216 89.4288 20.0612 89.3533C20.08 89.3533 20.1366 89.3349 20.1555 89.3349C23.8715 88.5426 27.6442 88.1274 31.4546 88.1651C32.1337 88.1651 32.8317 88.1845 33.5107 88.2222C33.8691 88.2411 34.2464 88.2403 34.6425 88.2969C36.2836 88.3723 37.9436 88.5421 39.6224 88.8062C47.8846 90.0512 56.1467 93.5226 58.6933 102.068L58.882 102.501L71.6901 133.682L88.4408 122.931L91.308 126.25Z" fill="url(#paint2_linear_1614_33691)"/>
<path d="M55.2046 140.117L55.5631 141.438L55.0726 140.947L50.3379 120.971L57.4116 139.777C56.1478 138.061 55.1669 136.646 54.6953 135.929C54.6764 136.155 54.6388 136.25 54.6388 136.25L54.8274 137.59L55.2046 140.117Z" fill="#FF4F7C"/>
<path d="M3.34771 99.4455C8.76149 95.8803 15.7032 100.464 18.9854 109.028C20.966 114.216 25.8139 130.136 25.8139 130.136L58.0325 115.442L60.0509 122.289C60.0509 122.289 33.7743 149.15 21.1736 149C15.7032 148.943 4.27194 126.873 1.74425 118.102C-0.387306 110.726 -0.915409 102.256 3.34771 99.4455Z" fill="url(#paint3_linear_1614_33691)"/>
<path d="M83.084 131.671L66.1447 131.124C65.3147 131.105 64.8054 130.218 65.1827 129.483L82.5558 96.0002C82.7633 95.6041 83.1972 95.3592 83.65 95.3969L100.231 96.6984C101.042 96.755 101.513 97.6229 101.136 98.3397L84.1215 131.068C83.914 131.445 83.499 131.671 83.084 131.671Z" fill="#DADAF5"/>
<path d="M66.2945 110.22C66.2945 110.22 72.7835 107.202 73.5946 109.786C74.4246 112.371 68.9919 113.692 68.9919 113.692L66.2945 110.22Z" fill="#E7ABAB"/>
<path d="M68.541 109.594C68.541 109.594 74.7658 110.368 72.6531 116.253C70.5216 122.139 60.0525 122.289 60.0525 122.289L58.0341 115.442C58.0341 115.442 60.9202 109.689 62.5613 108.388C65.3908 106.162 76.4824 103.728 77.1426 105.2C78.1047 107.388 68.541 109.594 68.541 109.594Z" fill="#EABCBC"/>
<path d="M82.7634 122.327C81.7637 125.307 84.9327 129.062 89.8372 130.703C94.7416 132.363 98.3822 121.573 93.4589 119.913C88.5544 118.272 83.7632 119.365 82.7634 122.327Z" fill="#EABCBC"/>
<path d="M35.9805 87.3541L36.1315 94.579C36.1315 98.2196 32.6417 100.861 28.3409 100.427C23.9646 99.9929 20.5503 96.7486 20.5503 93.0325C20.5503 92.9382 20.4748 89.2602 20.4937 89.1659C20.8332 89.1281 21.154 89.1276 21.4935 89.1088C21.5124 89.1088 21.6443 92.6549 21.6632 92.6549C25.3793 92.5983 29.152 92.9195 32.9624 93.6929C33.6415 93.8249 34.1696 86.8827 34.8675 87.0336C35.2259 87.1657 35.5844 87.2221 35.9805 87.3541Z" fill="white"/>
<path d="M21.5713 89.5258V92.487H21.628C21.6469 92.8831 21.6469 93.1474 21.6469 93.1852C21.6469 96.1656 24.6461 98.8818 28.3433 99.2402C32.0405 99.5986 35.0398 97.4859 35.0398 94.4866C35.0398 94.4112 35.0021 92.4491 34.9644 91.355H35.0209L34.9455 90.7517L34.9266 90.6384L33.1535 74.0391H21.5713V85.5827H21.5148C21.4959 85.6582 21.5336 87.6206 21.5713 89.5258Z" fill="url(#paint4_linear_1614_33691)"/>
<path d="M30.8897 91.2624C26.5323 91.6774 21.458 85.2827 18.4776 79.3973C15.5161 74.474 15.4784 70.2293 18.2136 70.9272L19.6284 58.5343L29.5127 56.1202C29.5127 56.1202 38.2276 57.9876 39.9253 60.2134C45.1505 67.0608 41.0948 90.3004 30.8897 91.2624Z" fill="url(#paint5_linear_1614_33691)"/>
<path d="M42.657 63.7404C38.1486 66.5699 21.0585 63.9853 20.7567 63.8721C20.7378 63.8721 20.7001 63.9473 20.6813 64.0793C20.5115 65.4186 20.7567 72.8696 20.0022 73.9826C19.1911 75.2087 19.2098 72.511 18.9458 71.8319C18.7005 71.1528 17.5499 66.8904 17.5499 66.8904C17.5499 66.8904 17.3236 64.9282 16.3993 63.2117C15.4561 61.4951 13.6264 57.4769 15.7013 54.8171C17.7574 52.1574 20.3605 53.629 20.3605 53.629C20.3605 53.629 26.3025 47.1776 32.584 47.8567C38.8655 48.5357 36.2435 53.1767 36.2435 53.1767C36.2435 53.1767 39.4126 52.3842 41.6951 52.8746C42.8457 53.101 43.751 53.6669 43.9397 54.7987C43.9774 54.7987 47.1653 60.892 42.657 63.7404Z" fill="url(#paint6_linear_1614_33691)"/>
<path d="M42.6603 63.7391C38.1519 66.5686 21.0618 63.984 20.76 63.8708C20.7411 63.8708 20.7034 63.946 20.6846 64.0781C20.5902 63.9838 20.4959 63.8896 20.4204 63.7953C20.8166 63.3992 21.7786 63.6447 22.3068 63.6636C23.0802 63.6825 23.8348 63.6825 24.5893 63.6636C26.1172 63.6259 27.6451 63.5316 29.1353 63.2675C32.2477 62.7205 35.3037 61.5316 37.5673 59.4378C39.5102 57.6457 40.7551 55.3449 41.736 52.8927C42.8867 53.1191 43.7921 53.6841 43.9807 54.8159C43.9807 54.797 47.1686 60.8908 42.6603 63.7391Z" fill="url(#paint7_linear_1614_33691)"/>
<path d="M19.8364 281.153C19.8364 279.493 18.4971 278.154 16.8371 278.154C15.1771 278.154 13.8379 279.493 13.8379 281.153C13.8379 282.813 15.1771 284.152 16.8371 284.152C18.4971 284.152 19.8364 282.794 19.8364 281.153ZM19.3837 281.153C19.3837 282.549 18.2519 283.7 16.8371 283.7C15.4412 283.7 14.2906 282.568 14.2906 281.153C14.2906 279.738 15.4224 278.606 16.8371 278.606C18.2519 278.606 19.3837 279.738 19.3837 281.153Z" fill="white"/>
<path d="M56.4476 281.153C56.4476 279.493 55.1084 278.154 53.4484 278.154C51.7885 278.154 50.4491 279.493 50.4491 281.153C50.4491 282.813 51.7885 284.152 53.4484 284.152C55.1084 284.152 56.4476 282.794 56.4476 281.153ZM55.9949 281.153C55.9949 282.549 54.8632 283.7 53.4484 283.7C52.0525 283.7 50.9018 282.568 50.9018 281.153C50.9018 279.738 52.0337 278.606 53.4484 278.606C54.8443 278.606 55.9949 279.738 55.9949 281.153Z" fill="white"/>
<path d="M30.1534 82.9063L32.6434 82.9441C33.0018 82.9441 33.266 82.6232 33.2094 82.2837L31.9643 78.0017C31.9078 77.7942 31.7003 77.6434 31.4928 77.6434C31.2664 77.6434 31.0777 77.7753 31.0023 78.0017L29.6442 82.2275C29.531 82.5482 29.7762 82.8875 30.1534 82.9063Z" fill="#FC8E8E"/>
<path d="M31.7379 86.5579C32.1151 86.4636 32.5113 86.2748 32.9074 86.0108C33.1149 85.8787 33.1526 85.5961 33.0206 85.4075C32.8885 85.2 32.6056 85.1621 32.4169 85.2942C30.5117 86.5957 28.9649 85.0118 28.8895 84.9552C28.7197 84.7855 28.4367 84.7661 28.267 84.9359C28.0972 85.1056 28.0784 85.3699 28.2482 85.5585C28.833 86.1621 30.1722 86.9917 31.7379 86.5579Z" fill="white"/>
<path d="M28.0412 74.838C28.0789 75.2907 27.7394 75.7057 27.2679 75.7434C26.8151 75.7811 26.4001 75.4422 26.3812 74.9706C26.3435 74.5179 26.6831 74.1029 27.1547 74.0652C27.6074 74.0463 28.0035 74.3853 28.0412 74.838Z" fill="#121C7C"/>
<path d="M37.9087 74.0995C37.9464 74.5522 37.6068 74.9671 37.1352 75.0049C36.6825 75.0426 36.2676 74.7027 36.2298 74.2312C36.1921 73.7784 36.5316 73.3635 37.0032 73.3258C37.4559 73.3069 37.871 73.6467 37.9087 74.0995Z" fill="#121C7C"/>
<path d="M26.8899 70.7909C28.9272 70.6211 30.7569 71.9796 31.2474 73.9225C31.5303 73.7527 31.7944 73.6766 32.0585 73.6766C32.2094 73.6766 32.3791 73.7144 32.53 73.7899C32.7187 71.8281 34.3032 70.2059 36.3405 70.0549C38.6229 69.8663 40.6224 71.5829 40.8111 73.8654C40.9997 76.1478 39.2831 78.1476 37.0007 78.3362C34.7559 78.506 32.7942 76.8645 32.5489 74.6575C32.3792 74.4877 32.2282 74.4129 32.0585 74.3941C31.851 74.3941 31.6246 74.5071 31.3794 74.7146C31.5115 76.9593 29.8137 78.9024 27.569 79.0721C25.2865 79.2608 23.287 77.5442 23.0984 75.2617C22.8909 72.9604 24.6075 70.9606 26.8899 70.7909ZM33.2092 74.4503C33.3601 76.3366 35.02 77.7705 36.9252 77.6196C38.8116 77.4687 40.2452 75.8088 40.0943 73.9225C39.9434 72.0361 38.2834 70.6022 36.3782 70.7531C34.473 70.8852 33.0583 72.5451 33.2092 74.4503ZM23.7775 75.1862C23.9285 77.0725 25.5884 78.5065 27.4936 78.3556C29.3799 78.2046 30.8135 76.5443 30.6626 74.6391C30.5117 72.7527 28.8518 71.3188 26.9466 71.4697C25.0414 71.6206 23.6266 73.2998 23.7775 75.1862Z" fill="white"/>
<path d="M23.5506 74.1455C23.6638 74.1455 23.777 74.0897 23.8525 73.9954C23.9657 73.8256 23.9091 73.6177 23.7582 73.5045L18.5708 70.0901C18.4199 69.9769 18.1935 70.0341 18.0803 70.185C17.9671 70.3547 18.0237 70.5618 18.1746 70.675L23.362 74.0894C23.3997 74.1271 23.4751 74.1455 23.5506 74.1455Z" fill="white"/>
<path d="M38.6792 68.5323C37.3965 68.9473 35.7365 68.8159 34.5482 68.1934C34.2841 68.0613 34.303 67.8157 34.5859 67.7402C35.2273 67.5327 35.9629 67.458 36.6797 67.5145C37.3965 67.5711 38.1134 67.7594 38.6981 68.0801C38.9811 68.2121 38.9622 68.4569 38.6792 68.5323Z" fill="#121C7C"/>
<path d="M27.5883 68.6226C26.5697 69.528 25.004 70.0561 23.6647 69.9618C23.3818 69.943 23.3064 69.7161 23.5139 69.5087C24.0044 69.0559 24.6645 68.6979 25.3436 68.4715C26.0227 68.2452 26.7584 68.1317 27.4186 68.1694C27.7205 68.2072 27.7958 68.434 27.5883 68.6226Z" fill="#121C7C"/>
<path d="M217.316 351.769L219.39 367.393C219.675 369.524 221.487 371.108 223.641 371.108H228.746C229.635 371.108 230.467 370.835 231.151 370.368C232.131 369.707 232.815 368.635 232.986 367.393L235.06 351.769H217.316Z" fill="url(#paint8_linear_1614_33691)"/>
<path d="M217.315 351.765L219.389 367.389C219.674 369.52 221.486 371.104 223.64 371.104H228.745C229.634 371.104 230.466 370.831 231.15 370.363C230.854 370.272 230.546 370.169 230.261 370.044C228.848 369.451 227.549 368.449 226.945 367.036C226.466 365.942 226.455 364.722 226.272 363.549C226.056 362.124 225.589 360.745 225.133 359.378C224.62 357.85 224.107 356.323 223.389 354.865C222.854 353.771 222.215 352.734 221.475 351.754H217.315V351.765Z" fill="#4DC591"/>
<path d="M217.315 351.905C217.315 352.964 221.281 353.819 226.181 353.819C231.082 353.819 235.047 352.964 235.047 351.905C235.047 350.845 231.082 349.99 226.181 349.99C221.281 349.99 217.315 350.845 217.315 351.905Z" fill="#41446B"/>
<path d="M217.318 351.904C217.318 352.759 219.917 353.488 223.506 353.727C223.86 353.75 224.224 353.773 224.612 353.784C224.76 353.796 224.908 353.796 225.056 353.796C225.273 353.796 225.501 353.807 225.729 353.819H226.56C231.278 353.762 235.039 352.941 235.039 351.904C235.039 350.844 231.073 349.99 226.173 349.99C226.036 349.99 225.888 349.989 225.751 350.001C225.706 349.989 225.672 350.001 225.626 350.001C225.398 350.001 225.193 350.012 224.976 350.012C224.805 350.012 224.635 350.023 224.475 350.035C224.156 350.058 223.837 350.069 223.529 350.092C223.221 350.115 222.925 350.138 222.629 350.172C219.506 350.445 217.318 351.118 217.318 351.904Z" fill="#2E34A5"/>
<path d="M224.435 332.541C225.575 330.581 226.76 328.632 227.968 326.718C232.298 319.869 237.107 313.328 242.338 307.14C243.546 305.715 244.766 304.29 245.848 302.763C246.783 301.43 249.632 297.396 248.64 295.424C248.572 295.276 248.469 295.139 248.355 295.025C246.566 293.191 242.167 295.732 240.902 297.145C240.139 298 239.569 299.014 238.771 299.835C237.164 301.476 234.817 302.137 232.936 303.447C229.552 305.806 228.002 309.954 226.646 313.852C225.951 315.857 225.244 317.863 224.822 319.937C223.968 324.063 224.207 328.325 224.435 332.541Z" fill="url(#paint9_linear_1614_33691)"/>
<path d="M227.981 326.722C232.312 319.873 237.121 313.332 242.351 307.144C243.559 305.719 244.779 304.294 245.861 302.767C246.796 301.434 249.645 297.4 248.653 295.428C247.765 296.021 246.887 296.819 246.454 297.206C245.246 298.289 244.209 299.576 243.445 301.012C242.841 302.152 242.34 303.429 241.303 304.204C240.186 305.024 238.614 305.126 237.622 306.107C236.619 307.098 236.539 308.648 236.038 309.958C235.388 311.69 233.998 313.013 232.904 314.506C230.853 317.286 229.816 320.671 228.813 323.976C228.517 324.876 228.243 325.799 227.981 326.722Z" fill="url(#paint10_linear_1614_33691)"/>
<path d="M224.473 350.013V350.116C224.508 351.336 224.69 352.623 225.066 353.797C225.282 353.797 225.51 353.809 225.738 353.82H226.24C225.932 352.578 225.772 351.29 225.75 350.002C225.715 348.509 225.886 347.017 226.251 345.581C227.003 342.595 228.758 340.224 230.49 337.66H230.092C229.055 338.971 227.824 339.997 226.992 341.444C225.476 344.054 224.439 347.005 224.473 350.013Z" fill="url(#paint11_linear_1614_33691)"/>
<path d="M229.088 338.805C229.874 338.087 230.9 336.845 231.47 335.945C232.039 335.044 232.415 334.042 232.917 333.096C234.695 329.757 237.908 327.375 241.373 325.871C244.142 324.663 247.094 323.968 250.068 323.386C251.994 322.999 253.988 323.033 255.891 323.523C257.327 323.899 258.091 324.355 258.49 324.765C259.037 325.335 258.9 325.802 258.9 325.802C258.9 325.802 256.039 328.344 254.444 329.187C250.125 331.501 245.806 333.825 241.498 336.138C241.213 336.298 240.928 336.447 240.643 336.595C238.604 337.689 236.472 338.805 234.159 338.851C233.042 338.874 231.948 338.645 230.831 338.634C230.353 338.634 229.851 338.68 229.373 338.805H229.088Z" fill="url(#paint12_linear_1614_33691)"/>
<path d="M241.499 336.151C245.818 333.838 250.137 331.513 254.445 329.199C256.029 328.345 258.9 325.814 258.9 325.814C258.9 325.814 259.049 325.348 258.49 324.778C257.761 324.744 257.02 324.835 256.473 324.903C254.855 325.108 253.294 325.61 251.835 326.339C248.997 327.775 246.615 329.985 244.519 332.367C243.459 333.587 242.445 334.84 241.499 336.151Z" fill="url(#paint13_linear_1614_33691)"/>
<path d="M221.329 353.451H220.736C223.802 344.323 224.463 339.354 224.463 334.386C224.463 332.539 224.383 330.625 225.021 328.893C225.181 331.765 225.158 334.659 224.953 337.531C224.77 340.095 224.428 342.659 223.95 345.178C223.71 346.431 223.437 347.673 223.129 348.915C223.129 348.972 223.118 349.052 221.329 353.451Z" fill="url(#paint14_linear_1614_33691)"/>
<path d="M224.792 339.972C223.766 338.194 222.695 336.45 221.601 334.718C217.692 328.542 213.35 322.638 208.632 317.054C207.538 315.767 206.433 314.479 205.464 313.1C204.621 311.904 202.045 308.257 202.945 306.479C203.014 306.354 203.094 306.229 203.207 306.115C204.814 304.451 208.792 306.753 209.931 308.029C210.615 308.804 211.128 309.715 211.857 310.456C213.304 311.938 215.424 312.531 217.122 313.716C220.176 315.847 221.566 319.584 222.797 323.106C223.424 324.918 224.062 326.73 224.45 328.599C225.202 332.325 224.997 336.177 224.792 339.972Z" fill="url(#paint15_linear_1614_33691)"/>
<path d="M221.591 334.722C217.683 328.545 213.341 322.642 208.623 317.058C207.529 315.77 206.423 314.483 205.455 313.104C204.611 311.907 202.036 308.26 202.936 306.483C203.745 307.018 204.532 307.736 204.919 308.09C206.013 309.07 206.948 310.232 207.643 311.531C208.19 312.557 208.646 313.707 209.58 314.402C210.594 315.143 212.007 315.235 212.896 316.124C213.797 317.012 213.876 318.414 214.321 319.599C214.913 321.16 216.167 322.357 217.158 323.702C219.005 326.209 219.95 329.263 220.851 332.249C221.101 333.058 221.352 333.89 221.591 334.722Z" fill="url(#paint16_linear_1614_33691)"/>
<path d="M224.611 353.788C224.235 353.777 223.87 353.754 223.505 353.731C223.426 353.059 223.312 352.398 223.152 351.737C223.015 351.19 222.833 350.654 222.628 350.142C221.83 348.147 220.565 346.427 219.335 344.58H219.688C220.634 345.766 221.728 346.689 222.491 347.999C222.879 348.66 223.221 349.355 223.528 350.061C224.041 351.269 224.417 352.512 224.611 353.788Z" fill="url(#paint17_linear_1614_33691)"/>
<path d="M220.586 345.638C219.868 344.988 218.957 343.871 218.444 343.051C217.931 342.23 217.589 341.33 217.133 340.487C215.526 337.478 212.632 335.324 209.498 333.957C206.991 332.874 204.336 332.248 201.646 331.712C199.902 331.37 198.102 331.393 196.392 331.837C195.093 332.179 194.41 332.589 194.056 332.965C193.555 333.478 193.692 333.9 193.692 333.9C193.692 333.9 196.279 336.19 197.714 336.954C201.612 339.051 205.509 341.137 209.407 343.233C209.669 343.37 209.92 343.507 210.182 343.643C212.016 344.635 213.942 345.638 216.028 345.683C217.031 345.706 218.022 345.501 219.036 345.49C219.469 345.49 219.925 345.535 220.347 345.638H220.586Z" fill="url(#paint18_linear_1614_33691)"/>
<path d="M209.393 343.232C205.496 341.147 201.598 339.049 197.701 336.953C196.265 336.189 193.678 333.899 193.678 333.899C193.678 333.899 193.541 333.477 194.043 332.964C194.692 332.93 195.365 333.021 195.866 333.078C197.325 333.26 198.738 333.716 200.049 334.377C202.613 335.677 204.755 337.671 206.658 339.824C207.627 340.918 208.539 342.058 209.393 343.232Z" fill="url(#paint19_linear_1614_33691)"/>
<path d="M226.569 353.807H225.737C225.543 353.009 225.384 352.2 225.224 351.38C225.133 350.912 225.053 350.457 224.974 349.99C224.666 348.166 224.449 346.32 224.313 344.474C224.13 341.875 224.096 339.277 224.244 336.679C224.826 338.24 224.746 339.961 224.746 341.625C224.746 344.177 224.94 346.742 225.623 349.978C225.874 351.163 226.182 352.428 226.569 353.807Z" fill="url(#paint20_linear_1614_33691)"/>
<defs>
<linearGradient id="paint0_linear_1614_33691" x1="138.537" y1="299.594" x2="101.407" y2="299.594" gradientUnits="userSpaceOnUse">
<stop stop-color="#E4E8FD"/>
<stop offset="0.9928" stop-color="#BBC2E9"/>
</linearGradient>
<linearGradient id="paint1_linear_1614_33691" x1="87.8386" y1="257.153" x2="50.7002" y2="257.153" gradientUnits="userSpaceOnUse">
<stop stop-color="#E4E8FD"/>
<stop offset="0.9928" stop-color="#BBC2E9"/>
</linearGradient>
<linearGradient id="paint2_linear_1614_33691" x1="76.5622" y1="164.53" x2="-37.5131" y2="55.5118" gradientUnits="userSpaceOnUse">
<stop stop-color="#4DC591"/>
<stop offset="1" stop-color="#7BDDB3" stop-opacity="0.35"/>
</linearGradient>
<linearGradient id="paint3_linear_1614_33691" x1="35.6331" y1="163.953" x2="-41.3726" y2="82.3481" gradientUnits="userSpaceOnUse">
<stop stop-color="#4DC591"/>
<stop offset="1" stop-color="#7BDDB3" stop-opacity="0.35"/>
</linearGradient>
<linearGradient id="paint4_linear_1614_33691" x1="27.3289" y1="75.9516" x2="28.7892" y2="100.139" gradientUnits="userSpaceOnUse">
<stop offset="0.0036036" stop-color="#FCB3B3"/>
<stop offset="1" stop-color="#FC8E8E"/>
</linearGradient>
<linearGradient id="paint5_linear_1614_33691" x1="29.2077" y1="63.9285" x2="29.2077" y2="85.7832" gradientUnits="userSpaceOnUse">
<stop offset="0.0036036" stop-color="#FCB3B3"/>
<stop offset="1" stop-color="#FC8E8E"/>
</linearGradient>
<linearGradient id="paint6_linear_1614_33691" x1="45.076" y1="61.0469" x2="14.7957" y2="61.0469" gradientUnits="userSpaceOnUse">
<stop stop-color="#4048C8"/>
<stop offset="1" stop-color="#2D32A4"/>
</linearGradient>
<linearGradient id="paint7_linear_1614_33691" x1="23.4948" y1="50.3105" x2="26.4416" y2="53.257" gradientUnits="userSpaceOnUse">
<stop stop-color="#4048C8"/>
<stop offset="1" stop-color="#2D32A4"/>
</linearGradient>
<linearGradient id="paint8_linear_1614_33691" x1="235.044" y1="361.44" x2="217.313" y2="361.44" gradientUnits="userSpaceOnUse">
<stop stop-color="#89DBB7"/>
<stop offset="1" stop-color="#4DC591"/>
</linearGradient>
<linearGradient id="paint9_linear_1614_33691" x1="248.851" y1="313.458" x2="224.223" y2="313.458" gradientUnits="userSpaceOnUse">
<stop offset="1.1e-07" stop-color="white"/>
<stop offset="1" stop-color="#D8D8DE"/>
</linearGradient>
<linearGradient id="paint10_linear_1614_33691" x1="251.159" y1="323.92" x2="247.837" y2="320.599" gradientUnits="userSpaceOnUse">
<stop offset="1.1e-07" stop-color="white"/>
<stop offset="1" stop-color="#CCCCDC"/>
</linearGradient>
<linearGradient id="paint11_linear_1614_33691" x1="230.491" y1="345.738" x2="224.473" y2="345.738" gradientUnits="userSpaceOnUse">
<stop offset="1.1e-07" stop-color="white"/>
<stop offset="1" stop-color="#D8D8DE"/>
</linearGradient>
<linearGradient id="paint12_linear_1614_33691" x1="258.92" y1="330.986" x2="229.09" y2="330.986" gradientUnits="userSpaceOnUse">
<stop offset="1.1e-07" stop-color="white"/>
<stop offset="1" stop-color="#D8D8DE"/>
</linearGradient>
<linearGradient id="paint13_linear_1614_33691" x1="260.836" y1="335.132" x2="259.951" y2="333.102" gradientUnits="userSpaceOnUse">
<stop offset="1.1e-07" stop-color="white"/>
<stop offset="1" stop-color="#CCCCDC"/>
</linearGradient>
<linearGradient id="paint14_linear_1614_33691" x1="225.126" y1="341.169" x2="220.736" y2="341.169" gradientUnits="userSpaceOnUse">
<stop offset="1.1e-07" stop-color="white"/>
<stop offset="1" stop-color="#D8D8DE"/>
</linearGradient>
<linearGradient id="paint15_linear_1614_33691" x1="224.985" y1="322.748" x2="202.759" y2="322.748" gradientUnits="userSpaceOnUse">
<stop offset="1.1e-07" stop-color="white"/>
<stop offset="1" stop-color="#D8D8DE"/>
</linearGradient>
<linearGradient id="paint16_linear_1614_33691" x1="223.666" y1="332.194" x2="220.669" y2="329.196" gradientUnits="userSpaceOnUse">
<stop offset="1.1e-07" stop-color="white"/>
<stop offset="1" stop-color="#CCCCDC"/>
</linearGradient>
<linearGradient id="paint17_linear_1614_33691" x1="224.612" y1="349.183" x2="219.335" y2="349.183" gradientUnits="userSpaceOnUse">
<stop offset="1.1e-07" stop-color="white"/>
<stop offset="1" stop-color="#D8D8DE"/>
</linearGradient>
<linearGradient id="paint18_linear_1614_33691" x1="220.591" y1="338.579" x2="193.677" y2="338.579" gradientUnits="userSpaceOnUse">
<stop offset="1.1e-07" stop-color="white"/>
<stop offset="1" stop-color="#D8D8DE"/>
</linearGradient>
<linearGradient id="paint19_linear_1614_33691" x1="211.125" y1="342.312" x2="210.326" y2="340.479" gradientUnits="userSpaceOnUse">
<stop offset="1.1e-07" stop-color="white"/>
<stop offset="1" stop-color="#CCCCDC"/>
</linearGradient>
<linearGradient id="paint20_linear_1614_33691" x1="226.57" y1="345.241" x2="224.152" y2="345.241" gradientUnits="userSpaceOnUse">
<stop offset="1.1e-07" stop-color="white"/>
<stop offset="1" stop-color="#D8D8DE"/>
</linearGradient>
</defs>
</svg>
